<mxfile host="app.diagrams.net" modified="2023-07-20T07:44:31.749Z" agent="Mozilla/5.0 (Windows NT 10.0; Win64; x64) AppleWebKit/537.36 (KHTML, like Gecko) Chrome/114.0.0.0 Safari/537.36 Edg/114.0.1823.82" version="21.6.2" etag="Rzt2xsv4ac9MK56wuVzr" type="github">
  <diagram name="第 1 页" id="zgIXUTr1CyItr-jODKCV">
    <mxGraphModel>
      <root>
        <mxCell id="0" />
        <mxCell id="1" parent="0" />
      </root>
    </mxGraphModel>
  </diagram>
</mxfile>
